<svg xmlns="http://www.w3.org/2000/svg" viewBox="0 0 1000 320" fill="none">
  
  <path d="M113.6 254.4c-3.2 4-8 6.4-13.6 6.4-9.6 0-17.6-7.2-19.2-17.6-.8-4-.8-8 0-12 1.6-10.4 9.6-17.6 19.2-17.6 5.6 0 10.4 2.4 13.6 6.4v-5.6h12v46.4h-12v-6.4zm-11.2-2.4c6.4 0 11.2-5.6 11.2-13.6s-4.8-13.6-11.2-13.6-11.2 5.6-11.2 13.6 4.8 13.6 11.2 13.6zm73.6-38.4v46.4h-12v-5.6c-3.2 4-8 6.4-13.6 6.4-9.6 0-17.6-7.2-19.2-17.6-.8-4-.8-8 0-12 1.6-10.4 9.6-17.6 19.2-17.6 5.6 0 10.4 2.4 13.6 6.4v-6.4h12zm-23.2 36.8c6.4 0 11.2-5.6 11.2-13.6s-4.8-13.6-11.2-13.6-11.2 5.6-11.2 13.6 4.8 13.6 11.2 13.6zm44.8-36.8v8.8c1.6-5.6 6.4-9.6 12.8-9.6h4v11.2h-4c-7.2 0-12 4.8-12 12.8v23.2h-12v-46.4h11.2zm43.2 47.2c-14.4 0-25.6-10.4-25.6-24.8s11.2-24 25.6-24c14.4 0 25.6 10.4 25.6 24s-11.2 24.8-25.6 24.8zm0-10.4c7.2 0 13.6-5.6 13.6-14.4 0-8-6.4-13.6-13.6-13.6s-13.6 5.6-13.6 13.6c0 8.8 6.4 14.4 13.6 14.4zm59.2 10.4c-14.4 0-25.6-10.4-25.6-24.8s11.2-24 25.6-24c8.8 0 16 4 20.8 10.4l-8 6.4c-3.2-4-7.2-6.4-12.8-6.4-7.2 0-13.6 5.6-13.6 13.6 0 8 6.4 14.4 13.6 14.4 5.6 0 9.6-2.4 12.8-6.4l8 6.4c-4.8 6.4-12 10.4-20.8 10.4zm42.4-68v43.2l19.2-22.4h14.4l-21.6 24.8 22.4 21.6h-15.2l-19.2-19.2v19.2h-12v-67.2h12z" fill="#FF385C"></path>
  
  <path d="M320 214v47h-11v-47h11zm-5.5-12c3.6 0 6 2.2 6 5.5s-2.4 5.5-6 5.5-6-2.2-6-5.5 2.4-5.5 6-5.5zm41 11.2c9 0 15.5 6 15.5 16.5V261h-11v-30c0-5.5-3.5-8.5-8.5-8.5-6 0-10 4-10 11v27.5h-11v-47h10.5v5c2.5-3.5 7-5.5 14.5-5.5zM415 202v59h-10.5v-5.5c-3 3.8-7.5 6-13 6-12 0-20-9-20-24.5s8-24 20-24c5.5 0 10 2.2 13 6V202h10.5zm-21 50.5c6.5 0 10.5-5 10.5-13s-4-13-10.5-13-10.5 5-10.5 13 4 13 10.5 13zm59.5-39.3c-2-.7-4-1-5.5-1-4 0-6 1.8-6 5.5V222h10v9h-10v30h-11v-30h-6.5v-9h6.5v-4.5c0-9 5.5-14.5 16-14.5 2.5 0 5 .4 7.5 1.3l-.5 9zm35 0c-2-.7-4-1-5.5-1-4 0-6 1.8-6 5.5V222h10v9h-10v30h-11v-30h-6.5v-9h6.5v-4.5c0-9 5.5-14.5 16-14.5 2.5 0 5 .4 7.5 1.3l-.5 9zM514 261h-11v-47h10.5v5.5c2.5-4 6.5-6.2 11.5-6.2 5.5 0 10 2.5 12.5 7 3-4.5 7.5-7 13.5-7 9.5 0 15.5 6.2 15.5 16.5V261h-11v-30c0-5.5-3-8.5-8-8.5-5.5 0-9 4-9 11V261h-11v-30c0-5.5-3-8.5-8-8.5-5.5 0-9 4-9 11V261zm78-47.8c14 0 23.5 9.5 23.5 24.5 0 1-.1 2-.2 3H581c1 6.5 5.5 10.5 12 10.5 4.5 0 8-1.8 10.5-5l8 5.5c-4 5.5-10.5 9-19 9-14.5 0-24-9.5-24-24.5s9.5-23 23.5-23zm11.5 20c-.8-5.8-5-9.5-11.5-9.5s-10.8 3.8-12 9.5h23.5z" fill="#222222"></path>
</svg>